<svg width="571" height="603" viewBox="0 0 571 603" fill="none" xmlns="http://www.w3.org/2000/svg">
<path d="M549.028 559.378C546.912 558.3 546.07 555.71 547.148 553.592C548.228 551.476 550.818 550.636 552.934 551.714C555.05 552.792 555.892 555.382 554.813 557.498C553.735 559.614 551.145 560.456 549.028 559.378Z" fill="white"/>
<path d="M545.304 540.328C543.102 538.606 542.712 535.427 544.433 533.225C546.153 531.023 549.334 530.633 551.534 532.353C553.736 534.073 554.127 537.253 552.406 539.456C550.686 541.658 547.506 542.048 545.304 540.328Z" fill="white"/>
<path d="M533.226 566.783C530.568 565.92 529.113 563.064 529.978 560.406C530.842 557.749 533.696 556.295 536.354 557.158C539.012 558.023 540.466 560.877 539.602 563.535C538.739 566.192 535.884 567.647 533.226 566.783Z" fill="white"/>
<path d="M545.28 517.49C543.124 515.009 543.386 511.249 545.868 509.093C548.35 506.936 552.109 507.199 554.266 509.681C556.422 512.161 556.159 515.922 553.677 518.078C551.197 520.234 547.436 519.972 545.28 517.49Z" fill="white"/>
<path d="M525.392 545.331C522.518 543.738 521.479 540.114 523.072 537.239C524.667 534.363 528.29 533.326 531.166 534.92C534.04 536.513 535.079 540.137 533.486 543.011C531.892 545.887 528.268 546.925 525.392 545.331Z" fill="white"/>
<path d="M516.228 578.296C512.981 577.781 510.765 574.732 511.279 571.485C511.794 568.238 514.843 566.022 518.09 566.536C521.337 567.052 523.553 570.1 523.039 573.347C522.524 576.594 519.475 578.81 516.228 578.296Z" fill="white"/>
<path d="M550.379 491.113C548.445 487.763 549.593 483.48 552.943 481.546C556.291 479.612 560.575 480.76 562.509 484.11C564.442 487.46 563.295 491.743 559.945 493.676C556.595 495.61 552.313 494.462 550.379 491.113Z" fill="white"/>
<path d="M521.161 518.801C518.199 516.314 517.813 511.897 520.299 508.933C522.785 505.971 527.203 505.585 530.165 508.071C533.129 510.558 533.515 514.975 531.029 517.937C528.542 520.9 524.125 521.287 521.161 518.801Z" fill="white"/>
<path d="M503.177 554.811C499.542 553.489 497.669 549.469 498.992 545.834C500.315 542.2 504.333 540.327 507.968 541.65C511.603 542.973 513.477 546.991 512.154 550.626C510.831 554.26 506.811 556.134 503.177 554.811Z" fill="white"/>
<path d="M498.594 594.801C494.726 594.801 491.59 591.666 491.59 587.798C491.59 583.93 494.726 580.796 498.595 580.796C502.461 580.796 505.597 583.931 505.597 587.799C505.597 591.667 502.461 594.801 498.594 594.801Z" fill="white"/>
<path d="M522.231 487.211C519.368 483.674 519.913 478.486 523.45 475.623C526.987 472.76 532.175 473.305 535.038 476.842C537.901 480.378 537.356 485.566 533.819 488.43C530.283 491.293 525.095 490.748 522.231 487.211Z" fill="white"/>
<path d="M493.377 524.761C489.477 522.417 488.216 517.356 490.56 513.456C492.903 509.554 497.966 508.293 501.866 510.637C505.766 512.98 507.027 518.043 504.684 521.943C502.34 525.843 497.279 527.104 493.377 524.761Z" fill="white"/>
<path d="M479.107 569.915C474.641 569.046 471.724 564.722 472.592 560.255C473.46 555.788 477.786 552.871 482.252 553.739C486.719 554.608 489.635 558.933 488.767 563.4C487.9 567.867 483.574 570.783 479.107 569.915Z" fill="white"/>
<path d="M530.558 450.97C528.045 446.243 529.839 440.374 534.566 437.861C539.293 435.348 545.163 437.142 547.675 441.869C550.188 446.596 548.394 452.466 543.667 454.978C538.94 457.491 533.071 455.697 530.558 450.97Z" fill="white"/>
<path d="M488.807 487.858C484.829 484.276 484.508 478.147 488.09 474.168C491.672 470.19 497.801 469.87 501.78 473.452C505.758 477.034 506.078 483.162 502.496 487.142C498.914 491.119 492.786 491.44 488.807 487.858Z" fill="white"/>
<path d="M462.19 536.8C457.228 534.795 454.83 529.146 456.835 524.182C458.84 519.219 464.489 516.821 469.454 518.826C474.417 520.831 476.814 526.482 474.809 531.445C472.804 536.408 467.153 538.805 462.19 536.8Z" fill="white"/>
<path d="M453.918 591.895C448.569 591.708 444.383 587.219 444.571 581.869C444.757 576.519 449.246 572.333 454.596 572.521C459.946 572.708 464.131 577.197 463.944 582.546C463.757 587.897 459.269 592.083 453.918 591.895Z" fill="white"/>
<path d="M548.31 410.985C546.468 404.962 549.858 398.588 555.881 396.746C561.904 394.905 568.279 398.296 570.121 404.319C571.962 410.34 568.571 416.716 562.548 418.557C556.526 420.398 550.15 417.009 548.31 410.985Z" fill="white"/>
<path d="M491.813 444.213C488.023 439.183 489.027 432.033 494.057 428.243C499.087 424.453 506.238 425.458 510.028 430.488C513.818 435.518 512.812 442.669 507.782 446.459C502.752 450.249 495.603 449.243 491.813 444.213Z" fill="white"/>
<path d="M450.087 494.76C444.806 491.33 443.304 484.267 446.735 478.986C450.166 473.704 457.228 472.203 462.51 475.634C467.791 479.063 469.293 486.127 465.862 491.408C462.431 496.69 455.369 498.19 450.087 494.76Z" fill="white"/>
<path d="M428.166 556.529C422.031 555.113 418.204 548.989 419.622 542.853C421.038 536.716 427.161 532.89 433.298 534.308C439.435 535.724 443.261 541.848 441.844 547.984C440.426 554.121 434.303 557.947 428.166 556.529Z" fill="white"/>
<path d="M505.081 394.484C501.833 387.825 504.598 379.794 511.259 376.546C517.918 373.298 525.949 376.063 529.197 382.724C532.445 389.384 529.68 397.416 523.019 400.663C516.359 403.911 508.329 401.145 505.081 394.484Z" fill="white"/>
<path d="M445.547 443.494C440.218 438.346 440.069 429.852 445.217 424.523C450.364 419.193 458.857 419.045 464.187 424.193C469.516 429.34 469.665 437.833 464.518 443.163C459.37 448.492 450.877 448.64 445.547 443.494Z" fill="white"/>
<path d="M406.366 509.908C399.597 506.894 396.553 498.963 399.567 492.194C402.581 485.425 410.512 482.381 417.281 485.395C424.05 488.409 427.093 496.34 424.079 503.109C421.066 509.878 413.135 512.922 406.366 509.908Z" fill="white"/>
<path d="M392.262 585.716C384.871 585.199 379.298 578.788 379.815 571.397C380.333 564.006 386.744 558.434 394.135 558.951C401.527 559.468 407.099 565.879 406.582 573.271C406.065 580.661 399.654 586.233 392.262 585.716Z" fill="white"/>
<path d="M531.567 340.034C529.311 331.614 534.307 322.96 542.729 320.704C551.148 318.448 559.803 323.446 562.059 331.866C564.313 340.286 559.317 348.94 550.897 351.196C542.477 353.452 533.823 348.455 531.567 340.034Z" fill="white"/>
<path d="M451.812 383.268C446.813 376.126 448.549 366.285 455.689 361.285C462.83 356.286 472.672 358.022 477.671 365.163C482.671 372.303 480.935 382.145 473.795 387.144C466.653 392.144 456.812 390.408 451.812 383.268Z" fill="white"/>
<path d="M391.655 451.17C384.515 446.171 382.78 436.328 387.779 429.189C392.78 422.049 402.621 420.314 409.762 425.313C416.902 430.314 418.637 440.155 413.636 447.296C408.637 454.436 398.795 456.171 391.655 451.17Z" fill="white"/>
<path d="M358.35 535.555C349.93 533.298 344.933 524.643 347.19 516.224C349.446 507.803 358.101 502.807 366.521 505.063C374.942 507.32 379.938 515.975 377.681 524.395C375.424 532.814 366.769 537.81 358.35 535.555Z" fill="white"/>
<path d="M311.159 537.259C321.358 538.33 328.758 547.469 327.685 557.667C326.612 567.866 317.475 575.264 307.276 574.193C297.077 573.12 289.677 563.983 290.751 553.783C291.824 543.585 300.961 536.186 311.159 537.259Z" fill="white"/>
<path d="M472.567 315.122C468.397 305.753 472.611 294.777 481.98 290.606C491.349 286.436 502.325 290.649 506.496 300.018C510.666 309.387 506.452 320.363 497.083 324.535C487.714 328.705 476.738 324.491 472.567 315.122Z" fill="white"/>
<path d="M387.851 380.037C380.728 372.659 380.933 360.904 388.311 353.781C395.687 346.658 407.443 346.862 414.568 354.24C421.691 361.617 421.484 373.373 414.108 380.496C406.73 387.62 394.974 387.414 387.851 380.037Z" fill="white"/>
<path d="M330.445 470.01C321.228 465.515 317.401 454.399 321.898 445.181C326.394 435.964 337.511 432.137 346.728 436.632C355.945 441.129 359.772 452.246 355.276 461.463C350.781 470.68 339.664 474.507 330.445 470.01Z" fill="white"/>
<path d="M275.566 461.387C287.103 464.913 293.597 477.128 290.069 488.665C286.54 500.203 274.327 506.696 262.79 503.168C251.251 499.64 244.759 487.427 248.286 475.889C251.814 464.35 264.027 457.858 275.566 461.387Z" fill="white"/>
<path d="M511.834 241.083C509.121 229.327 516.45 217.598 528.207 214.884C539.963 212.171 551.692 219.501 554.406 231.256C557.119 243.012 549.79 254.743 538.033 257.457C526.277 260.17 514.548 252.839 511.834 241.083Z" fill="white"/>
<path d="M399.427 297.033C392.856 286.913 395.733 273.385 405.852 266.814C415.97 260.244 429.5 263.12 436.071 273.238C442.641 283.357 439.764 296.887 429.646 303.457C419.527 310.029 405.997 307.152 399.427 297.033Z" fill="white"/>
<path d="M312.935 388.053C303.3 380.792 301.374 367.095 308.636 357.46C315.897 347.825 329.595 345.9 339.231 353.161C348.866 360.423 350.789 374.121 343.528 383.756C336.268 393.391 322.57 395.315 312.935 388.053Z" fill="white"/>
<path d="M251.492 365.774C264.024 372.438 268.781 388 262.117 400.532C255.453 413.065 239.89 417.822 227.358 411.158C214.826 404.494 210.068 388.931 216.733 376.399C223.398 363.867 238.959 359.109 251.492 365.774Z" fill="white"/>
<path d="M197.431 503.245C211.488 505.221 221.28 518.218 219.305 532.275C217.328 546.33 204.331 556.123 190.275 554.146C176.22 552.17 166.427 539.173 168.403 525.118C170.38 511.062 183.376 501.27 197.431 503.245Z" fill="white"/>
<path d="M125.282 551.254C139.338 553.231 149.13 566.228 147.155 580.284C145.179 594.339 132.182 604.132 118.125 602.156C104.07 600.179 94.277 587.183 96.2534 573.127C98.2298 559.071 111.227 549.279 125.282 551.254Z" fill="white"/>
<path d="M431.429 203.774C426.112 190.613 432.471 175.635 445.631 170.318C458.792 165.001 473.771 171.36 479.089 184.521C484.405 197.683 478.045 212.661 464.885 217.978C451.724 223.295 436.745 216.935 431.429 203.774Z" fill="white"/>
<path d="M311.109 289.474C301.612 278.926 302.464 262.675 313.013 253.178C323.562 243.68 339.812 244.533 349.31 255.082C358.807 265.63 357.955 281.881 347.406 291.378C336.857 300.876 320.607 300.023 311.109 289.474Z" fill="white"/>
<path d="M245.153 249.951C258.131 260.461 260.13 279.5 249.62 292.478C239.112 305.454 220.071 307.454 207.095 296.946C194.117 286.436 192.117 267.395 202.627 254.419C213.136 241.441 232.176 239.441 245.153 249.951Z" fill="white"/>
<path d="M151.862 396.577C167.65 402.014 176.043 419.221 170.605 435.01C165.168 450.798 147.96 459.191 132.171 453.753C116.382 448.316 107.991 431.108 113.429 415.319C118.865 399.53 136.073 391.139 151.862 396.577Z" fill="white"/>
<path d="M489.319 103.257C486.133 86.8646 496.84 70.9939 513.233 67.8088C529.625 64.6223 545.495 75.3285 548.682 91.7221C551.867 108.114 541.161 123.985 524.769 127.17C508.375 130.356 492.505 119.65 489.319 103.257Z" fill="white"/>
<path d="M331.13 175.22C322.531 160.905 327.163 142.33 341.476 133.73C355.792 125.129 374.366 129.763 382.967 144.076C391.567 158.39 386.934 176.966 372.62 185.566C358.306 194.166 339.73 189.534 331.13 175.22Z" fill="white"/>
<path d="M263.833 114.77C276.46 129.82 274.496 152.258 259.447 164.885C244.396 177.513 221.959 175.548 209.331 160.498C196.704 145.447 198.668 123.01 213.719 110.384C228.768 97.7564 251.205 99.7192 263.833 114.77Z" fill="white"/>
<path d="M123.18 263.159C140.194 272.982 146.023 294.738 136.199 311.752C126.375 328.765 104.618 334.593 87.6055 324.77C70.5914 314.946 64.764 293.19 74.5878 276.176C84.4116 259.164 106.167 253.335 123.18 263.159Z" fill="white"/>
<path d="M107.618 91.5123C127.263 102.855 133.993 127.975 122.65 147.62C111.307 167.264 86.1858 173.994 66.5422 162.651C46.8971 151.308 40.1684 126.188 51.5114 106.543C62.8545 86.8996 87.9742 80.1693 107.618 91.5123Z" fill="white"/>
<path d="M41.7622 450.703C61.1092 454.116 74.0269 472.567 70.615 491.914C67.2017 511.261 48.7523 524.179 29.4046 520.767C10.0574 517.354 -2.86041 498.903 0.552166 479.556C3.96475 460.209 22.415 447.291 41.7622 450.703Z" fill="white"/>
<path d="M379.9 47.766C373.182 29.3048 382.702 8.89231 401.163 2.17408C419.624 -4.54415 440.037 4.97411 446.755 23.4367C453.473 41.8979 443.953 62.3105 425.492 69.0287C407.031 75.747 386.618 66.2272 379.9 47.766Z" fill="white"/>
</svg>
