<svg width="176" height="218" viewBox="0 0 176 218" fill="none" xmlns="http://www.w3.org/2000/svg">
<path d="M50 18C52.8535 18 55.6511 18.2391 58.374 18.6982C44.611 31.481 36 49.735 36 70C36 106.639 64.1488 136.702 100 139.745V168C100 195.614 77.6142 218 50 218C22.3858 218 0 195.614 0 168V68C0 40.3858 22.3858 18 50 18ZM106 0C144.66 0 176 31.3401 176 70C176 108.66 144.66 140 106 140C103.979 140 101.978 139.913 100 139.745V68C100 43.2392 82.0016 22.6823 58.374 18.6982C70.867 7.09505 87.605 0 106 0Z" fill="white"/>
</svg>
